/* XPM */
static char *_032d8ff62eb46439462ede5e0e6ff3cvFvpFiYT3GuV7Vpn[] = {
/* columns rows colors chars-per-pixel */
"100 100 18 1 ",
"  c None",
". c black",
"X c #C52525",
"o c #C62424",
"O c #C72424",
"+ c #C62525",
"@ c #C72525",
"# c #C52626",
"$ c #C52727",
"% c #C62626",
"& c #C72626",
"* c #C62727",
"= c #C92323",
"- c #C82424",
"; c #C92424",
": c #CA2424",
"> c #C62828",
", c #FFEB3B",
/* pixels */
"....................................................................................................",
"....................................................................................................",
"...,,,,,,,,,,,,,,,,,,,,,,,,,,,,,,,,,,,,,,,,,,,,,,,,,,,,,,,,,,,,,,,,,,,,,,,,,,,,,,,,,,,,,,,,,,,,,,,..",
"...,,,,,,,,,,,,,,,,,,,,,,,,,,,,,,,,,,,,,,,,,,,,,,,,,,,,,,,,,,,,,,,,,,,,,,,,,,,,,,,,,,,,,,,,,,,,,,,..",
"...,,,,,,,,,,,,,,,,,,,,,,,,,,,,,,,,,,,,,,,,,,,,,,,,,,,,,,,,,,,,,,,,,,,,,,,,,,,,,,,,,,,,,,,,,,,,,,,..",
"...,,,,,,,,,,,,,,,,,,,,,,,,,,,,,,,,,,,,,,,,,,,,,,,,,,,,,,,,,,,,,,,,,,,,,,,,,,,,,,,,,,,,,,,,,,,,,,,..",
"...,,,,,,,,,,,,,,,,,,,,,,,,,,,,,,,,,,,,,,,,,,,,,,,,,,,,,,,,,,,,,,,,,,,,,,,,,,,,,,,,,,,,,,,,,,,,,,,..",
"...,,,,,,,,,,,,,,,,,,,,,,,,,,,,,,,,,,,,,,,,,,,,,,,,,,,,,,,,,,,,,,,,,,,,,,,,,,,,,,,,,,,,,,,,,,,,,,,..",
"...,,,,,,,,,,,,,,,,,,,,,,,,,, ,,,,,,,,,,,,,,,,,,,,,,,,,,,,,,,,,,,,,,,,,,,,,,,,,,,,,,,,,,,,,,,,,,,,..",
"...,,,,,,,,,,,,,,,,,      :  #,,,,   ,,,,,,,,,,,,,,,,,,,,,,,                  = ,,,,,,,,,,,,,,,,,,..",
"...,,,,,,,,,,,,     ***********,,,**o     ::,,,,,,,     ,,,,********************,,,,,,,,,,,,,,,,,,..",
"...,,,,,,,,,   ***********>>***,,,,*********,,,,,, ***** ,,,,>>******>**>*>>**>*>,,,,,,,,,,,,,,,,,..",
"...,,,,,    *** **>>****>**>***,,,,******>**>,,,,,* >>>>*,,,,*********>*>**>**>*>,,,,,,,,,,,,,,,,,..",
"...,,,,,**** >>>**>>***********,,,***>**>>**>,,,,,*>>>>>**,,*********************,,,,,,,,,,,,,,,,,..",
"...,,,,,**>>**>*o*****,,,,,,,,,,,,, *********,,,,,**##***>,,,,,,,,,,,**,,,,,,,,,,,,,,,,,,,,,,,,,,,..",
"...,,,,,,*>*****,,,**,,,,,,,,,,,,,,***,,,,,,,,,,,,**,,,,**,,,,,,,,,,,o*,,,,,,,,,,,,,,,,,,,,,,,,,,,..",
"...,,,,,*****,,,,,,**,,,,,,,,,,,,,,*>>,,,,,,,,,,,,*o,,,,,,,,,,,,,,,,,**,,,,,,,,,,,,,,,,,,,,,,,,,,,..",
"...,,,,,**,,,,,,,,,**,,,,,,,,,,,,,,*>*,,,,,,,,,,,,**  ,,,,,,,,,,,,,,,o*,,,,,,,,,,,,,,,,,,,,,,,,,,,..",
"...,,,,,,,,,,,,,,,,o*,,,,,,,,,,,,,,o>,,,,,,,,,,,,,o*** ,,,,,,,,,,,,,,**,,,,,,,,,,,,,,,,,,,,,,,,,,,..",
"...,,,,,,,,,,,,,,,,o*,,,,,,,,,,,,,,**    ,,,,,,,,,***** ,,,,,,,,,,,,,o*,,,,,,,,,,,,,,,,,,,,,,,,,,,..",
"...,,,,,,,,,,,,,,,,*>,,,,,,,,,,,,,,******,,,,,,,,,,***** ,,,,,,,,,,,,*>,,,,,,,,,,,,,,,,,,,,,,,,,,,..",
"...,,,,,,,,,,,,,,,,o>,,,,,,,,,,,,,,o>****>,,,,,,,,,,***** ,,,,,,,,,,,*>,,,,,,,,,,,,,,,,,,,,,,,,,,,..",
"...,,,,,,,,,,,,,,,,*>,,,,,,,,,,,,,,o****>>,,,,,,,,,,,o****,,,,,,,,,,,o>,,,,,,,,,,,,,,,,,,,,,,,,,,,..",
"...,,,,,,,,,,,,,,,,*>,,,,,,,,,,,,,,o******,,,,,,,,,,,,,****,,,,,,,,,,o>,,,,,,,,,,,,,,,,,,,,,,,,,,,..",
"...,,,,,,,,,,,,,,,,o>,,,,,,,,,,,,,,o*,,,,,,,,,,,,,,,,,,,***,,,,,,,,,,o*,,,,,,,,,,,,,,,,,,,,,,,,,,,..",
"...,,,,,,,,,,,,,,,,*>,,,,,,,,,,,,,,**,,,,,,,,,,,,,,,,,,,o***,,,,,,,,,o*,,,,,,,,,,,,,,,,,,,,,,,,,,,..",
"...,,,,,,,,,,,,,,,,o>,,,,,,,,,,,,,,*>,,,,,,,,,,,,,,,,,,,,***,,,,,,,,,**,,,,,,,,,,,,,,,,,,,,,,,,,,,..",
"...,,,,,,,,,,,,,,,,o>,,,,,,,,,,,,, **       ,,,,,,,,,,,,  **,,,,,,,,,o*,,,,,,,,,,,,,,,,,,,,,,,,,,,..",
"...,,,,,,,,,,,,,,,,o*,,,,,,,,,,,,,o**o*o****   ,,,,,    ***>,,,,,,,,,*>,,,,,,,,,,,,,,,,,,,,,,,,,,,..",
"...,,,,,,,,,,,,,,,,**,,,,,,,,,,,,,,*****>******,,,,,**** >*>,,,,,,,,,*>,,,,,,,,,,,,,,,,,,,,,,,,,,,..",
"...,,,,,,,,,,,,,,,,o>,,,,,,,,,,,,,,****>**>**>>>,,,,,>>>*>**,,,,,,,,,*>,,,,,,,,,,,,,,,,,,,,,,,,,,,..",
"...,,,,,,,,,,,,,,,,*>,,,,,,,,,,,,,***********>>*,,,,,>>>>***,,,,,,,,,*>,,,,,,,,,,,,,,,,,,,,,,,,,,,..",
"...,,,,,,,,,,,,,,,,**,,,,,,,,,,,,,,**o***,,,o***,,,,o####,,,,,,,,,,,,o>,,,,,,,,,,,,,,,,,,,,,,,,,,,..",
"...,,,,,,,,,,,,,,,,*>,,,,,,,,,,,,,,,,,,,,,,,,,,,,,,,,,,,,,,,,,,,,,,,,**,,,,,,,,,,,,,,,,,,,,,,,,,,,..",
"...,,,,,,,,,,,,,,,,*>,,,,,,,,,,,,,,,,,,,,,,,,,,,,,,,,,,,,,,,,,,,,,,,,o*,,,,,,,,,,,,,,,,,,,,,,,,,,,..",
"...,,,,,,,,,,,,,,,,*>,,,,,,,,,,,,,,,,,,,,,,,,,,,,,,,,,,,,,,,,,,,,,,,,**,,,,,,,,,,,,,,,,,,,,,,,,,,,..",
"...,,,,,,,,,,,,,,,,**,,,,,,,,,,,,,,,,,,,,,,,,,,,,,,,,,,,,,,,,,,,,,,,,,,,,,,,,,,,,,,,,,,,,,,,,,,,,,..",
"...,,,,,,,,,,,,,,,,,,,,,,,,,,,,,,,,,,,,,,,,,,,,,,,,,,,,,,,,,,,,,,,,,,,,,,,,,,,,,,,,,,,,,,,,,,,,,,,..",
"...,,,,,,,,,,,,,,,,,,,,,,,,,,,,,,,,,,,,,,,,,,,,,,,,,,,,,,,,,,,,,,,,,,,,,,,,,,,,,,,,,,,,,,,,,,,,,,,..",
"...,,,,,,,,,,,,,,,,,,,,,,,,,,,,,,,,,,,,,,,,,,,,,,,,,,,,,,,,,,,,,,,,,,,,,,,,,,,,,,,,,,,,,,,,,,,,,,,..",
"...,,,,,,,,,,,,,,,,,,,,,,,,,,,,,,,,,,,,,,,,,,,,,,,,,,,,,,,,,,,,,,,,,,,,,,,,,,,,,,,,,,,,,,,,,,,,,,,..",
"...,,,,,,,,,,,,,,,,,,,,,,,,,,,,,,,,,,,,,,,,,,,,,,,,,,,,,,,,,,,,,,,,,,,,,,,,,= ,,,,,,,,,,,,,,,,,,,,..",
"...,,,,,,,,,,,,,,,,,,,,,,,,,,,,,,,,,,,,,,,,,,,,,,,,,,,,,,,,,,,,,,,,,,,,,,,,=***,,,,,,,, = ,,,,,,,,..",
"...,,,,,,,,,,,,,,,,,,,,,,,,,,,,,,,,,,,,,,,,,,,,,,,,,,,,,,,,,,,,,,,,,,,,,,,,o**>,,,,,,,,***,,,,,,,,..",
"...,,,,,,,,,,,,,,,,,,,,,,,,,,,,,,,,,,,,,,,,,,,,,,,,,,,,,,,,,,,,,,,,,,,,,,,,*o**>,,,,,,,o**>,,,,,,,..",
"...,,,,,,,,,,,,,,,,,,,,,,,,,,,,,,,,,,,,,,,,,,,,,,,,,,,,,,,,,,,,,,,,,,,,,,,,,**>>,,,,,,,***>,,,,,,,..",
"...,,,,,,,,,,,,,,,,,,,,,,,,,,,,,,,,,,,,,,,,,,,,,,,,,,,,,,,,,,,,,,,,,,,,,,,,*****,,,,,,,*>>*,,,,,,,..",
"...,,,,,,,,,,,,,,,,,,,,,,,,,,,,,,,,,,,,,,,,,,,,,,,,,,,,,,,,,,,,,,,,,,,,,,,,*****,,,,,,,****,,,,,,,..",
"...,,,,,,,,,,,,,,,,,,,,,,,,,,,,,,,,,,,,,,,,,,,,,,,,,,,,,,,,,,,,,,,,,,,,,,,,,,,,,,,,,,,,****,,,,,,,..",
"...,,,,,,,,,,,,,,,,,,,,,,,,,,,,,,,,,,,,,,,,,,,,,,,,,,,,,,,,,,,,,,,,,,,,,,,,,,,,,,,,,,,,,,,,,,,,,,,..",
"...,,,,,,,,,,,,,,,,,,,,,,,,,,,,,,,,,,,,,,,,,,,,,,,,,,,,,,,,,,,,,,,,,,,,,,,,,,,,,,,,,,,,,,,,,,,,,,,..",
"...,,,,,,,,,,,,,,,,,,,,,,,,,,,,,,,,,,,,,,,,,,,,,,,,,,,,,,,,,,,,,,,,,,,,,,,,,,,,,,,,,,,,,,,,,,,,,,,..",
"...,,,,,,,,,,,,,,,,,,,,,,,,,,,,,,,,,,,,,,,,,,,,,,,,,,,,,,,,,,,,,,,,,,,,,,,,,,,,,,,,,,,,, ,,,,,,,,,..",
"...,,,,,,,,,,,,,,,,,,,,,,,,,,,,,,,,,,,,,,,,,,,,,,,,,,,,,,,,,,,,,,,,,,,,,,,,, ,,,,,,,,,,,*,,,,,,,,,..",
"...,,,,,,,,,,,,,,,,,,,,,,,,,,,,,,,,,,,,,,,,,,,,,,,,,,,,,,,,,,,,,,,,,,,,,,,,,*,,,,,,,,, ,**,,,,,,,,..",
"...,,,,,,, ,,,,,,,,,,,,,,,,,,,,,,,,,,,,,,,,,,,,,,,,,,,,,,,,,,,,,,,,,,,,,,,,,**,,,,,,,,*,**,,,,,,,,..",
"...,,,,,,,*,,,,,,,,,,,,,,,,,,,,,,,,,,,,,,,,,,,,,,,,,,,,,,,,,,,,,,,,,,,,,,,,,o*,,,,,,,=****,,,,,,,,..",
"...,,,,,,,**,,,,,,,,,,,,,,,,,,,,,,,,,,,,,,,,,,,,,,,,,,,,,,,,,,,,,,,,,,,,,,,,**,,,,,,=**>**,,,,,,,,..",
"...,,,,,,,**,,,,,,,,,,,,,,,,,,,,,,,,, ,,,,,,,,,,,,,,,,,,,,,,,,,,,,,,,,,,,,,,*o* ,,,,*o****,,,,,,,,..",
"...,,,,,,,**,,,,,,,,,,,,,,,,,, ,,,,  * ,,,,,,,,,, ,,,,,,,,,,,,,, ,,,,,,,,,,,**o*    =*****,,,,,,,,..",
"...,,,,,,,o*,,,,,,, ,,,,,,,,,,*,,,,o* *,,,,,,,,,,*,,,,,,,,,,,,,,o,,,,,,,,,,,*************,,,,,,,,,..",
"...,,,,,,,**,,,,,,,* ,,,,,,,, **,, o****,,,,,,,,,**,,,,,,,,,,,,,**,,,,,,,,,,,o*********o*,,,,,,,,,..",
"...,,,,,,,o**,,,,, **,,,,,,,,***,,o**o**,,,,,,,,,**,,,,,,,,,,,,,**,,,,,,,,,,,,***>*****,,,,,,,,,,,..",
"...,,,,,,,***,,,,,* **,,,,,,,***,,o******,,,,,,,,**,,,,,,,,,,,,,**,,,,,,,,,,,,,***o***,,,,,,,,,,,,..",
"...,,,,,,,,o**,,,,*o**,,,,,,,***,,*******,,,,,,,,**,,,,,,,,,,,,,***,,,,,,,,,,,,,,,,,,,,,,,,,,,,,,,..",
"...,,,,,,,,***,,,,****,,,,,, *o*, ***,,oo,,,,,,,,**,,,,,,,,,,,,,***,,,,,,,,,,,,,,,,,,,,,,,,,,,,,,,..",
"...,,,,,,,,,**,,,,o****,,,,,o**,,****,,*o*,,,,,,,***,,,,,,,,,,,,,**,,,,,,,,,,,,,,,,,,,,,,,,,,,,,,,..",
"...,,,,,,,,,o*,,, ***** ,,,,***, oo*,,,*#*,,,,,,,*o*,,,,,,,,,,,,,o*,,,,,,,,,,,,,,,,,,,,,,,,,,,,,,,..",
"...,,,,,,,,,**>,,*o*,*** ,,,***,*oo* ,,,***,,,,,,,*>,,,,,,,,,,,,,**,,,,,,,,,,,,,,,,,,,,,,,,,,,,,,,..",
"...,,,,,,,,,***,,***,****,, o*,,oo*****ooo*,,,,,,,**,,,,,,,,,,,,,**,,,,,,,,,,,,,,,,,,,,,,,,,,,,,,,..",
"...,,,,,,,,,,** ,o**,,****,***,,**>********,,,,,,,o*,,,,,,,,,,,,,***,,,,,,,,,,,,,,,,,,,,,,,,,,,,,,..",
"...,,,,,,,,,,***,**,,,,***,o**,,o****>******,,,,,,**,,,,,,,,,,,,,**>,,,,,,,,,,,,,,,,,,,,,,,,,,,,,,..",
"...,,,,,,,,,,******,,,,,** ***,,#**,*##*>***,,,,,,o*,,,,,,,,,,,,,,o*,,,,,,,,,,,,,,,,,,,,,,,,,,,,,,..",
"...,,,,,,,,,,,**oo*,,,,,*****,,,oo#,,,,*##*#,,,,,,**,,,,,,,,,,,,,,**,,,,,,,,,,,,,,,,,,,,,,,,,,,,,,..",
"...,,,,,,,,,,,,****,,,,,***o*,,,**,,,,,,,,**,,,,,,**,,,,,,,,,,,,,,**,,,,,,,,,,,,,,,,,,,,,,,,,,,,,,..",
"...,,,,,,,,,,,,*#o*,,,,,,****,,,**,,,,,,,,*>>,,,,,**,,,,,,,,,,,,,,**,,,,,,,,,,,,,,,,,,,,,,,,,,,,,,..",
"...,,,,,,,,,,,,,***,,,,,,,*o*,,,o*,,,,,,,,***,,,,,o*,,,,,,,,,,,,,,***,,      ,,,,,,,,,,,,,,,,,,,,,..",
"...,,,,,,,,,,,,,*o*,,,,,,,***,,,**,,,,,,,,***,,,,,**         ,,,,,***  ******,,,,,,,,,,,,,,,,,,,,,..",
"...,,,,,,,,,,,,,o**,,,,,,,,,,,,,**,,,,,,,,*##,,,,,***********,,,,,,o*** *>>>*>,,,,,,,,,,,,,,,,,,,,..",
"...,,,,,,,,,,,,,,*#,,,,,,,,,,,,,**,,,,,,,,,,,,,,,,*******>>>*>,,,,,****>>>>>>>,,,,,,,,,,,,,,,,,,,,..",
"...,,,,,,,,,,,,,,,,,,,,,,,,,,,,,*#,,,,,,,,,,,,,,,,**#*>>****>>,,,,,***********,,,,,,,,,,,,,,,,,,,,..",
"...,,,,,,,,,,,,,,,,,,,,,,,,,,,,,,,,,,,,,,,,,,,,,,,,,***##*****,,,,,**###,,,,,,,,,,,,,,,,,,,,,,,,,,..",
"...,,,,,,,,,,,,,,,,,,,,,,,,,,,,,,,,,,,,,,,,,,,,,,,,,,,,,,,,,,,,,,,,,,,,,,,,,,,,,,,,,,,,,,,,,,,,,,,..",
"...,,,,,,,,,,,,,,,,,,,,,,,,,,,,,,,,,,,,,,,,,,,,,,,,,,,,,,,,,,,,,,,,,,,,,,,,,,,,,,,,,,,,,,,,,,,,,,,..",
"...,,,,,,,,,,,,,,,,,,,,,,,,,,,,,,,,,,,,,,,,,,,,,,,,,,,,,,,,,,,,,,,,,,,,,,,,,,,,,,,,,,,,,,,,,,,,,,,..",
"...,,,,,,,,,,,,,,,,,,,,,,,,,,,,,,,,,,,,,,,,,,,,,,,,,,,,,,,,,,,,,,,,,,,,,,,,,,,,,,,,,,,,,,,,,,,,,,,..",
"...,,,,,,,,,,,,,,,,,,,,,,,,,,,,,,,,,,,,,,,,,,,,,,,,,,,,,,,,,,,,,,,,,,,,,,,,,,,,,,,,,,,,,,,,,,,,,,,..",
"...,,,,,,,,,,,,,,,,,,,,,,,,,,,,,,,,,,,,,,,,,,,,,,,,,,,,,,,,,,,,,,,,,,,,,,,,,,,,,,,,,,,,,,,,,,,,,,,..",
"...,,,,,,,,,,,,,,,,,,,,,,,,,,,,,,,,,,,,,,,,,,,,,,,,,,,,,,,,,,,,,,,,,,,,,,,,,,,,,,,,,,,,,,,,,,,,,,,..",
"...,,,,,,,,,,,,,,,,,,,,,,,,,,,,,,,,,,,,,,,,,,,,,,,,,,,,,,,,,,,,,,,,,,,,,,,,,,,,,,,,,,,,,,,,,,,,,,,..",
"...,,,,,,,,,,,,,,,,,,,,,,,,,,,,,,,,,,,,,,,,,,,,,,,,,,,,,,,,,,,,,,,,,,,,,,,,,,,,,,,,,,,,,,,,,,,,,,,..",
"...,,,,,,,,,,,,,,,,,,,,,,,,,,,,,,,,,,,,,,,,,,,,,,,,,,,,,,,,,,,,,,,,,,,,,,,,,,,,,,,,,,,,,,,,,,,,,,,..",
"...,,,,,,,,,,,,,,,,,,,,,,,,,,,,,,,,,,,,,,,,,,,,,,,,,,,,,,,,,,,,,,,,,,,,,,,,,,,,,,,,,,,,,,,,,,,,,,,..",
"...,,,,,,,,,,,,,,,,,,,,,,,,,,,,,,,,,,,,,,,,,,,,,,,,,,,,,,,,,,,,,,,,,,,,,,,,,,,,,,,,,,,,,,,,,,,,,,,..",
"...,,,,,,,,,,,,,,,,,,,,,,,,,,,,,,,,,,,,,,,,,,,,,,,,,,,,,,,,,,,,,,,,,,,,,,,,,,,,,,,,,,,,,,,,,,,,,,,..",
"...,,,,,,,,,,,,,,,,,,,,,,,,,,,,,,,,,,,,,,,,,,,,,,,,,,,,,,,,,,,,,,,,,,,,,,,,,,,,,,,,,,,,,,,,,,,,,,,..",
"...,,,,,,,,,,,,,,,,,,,,,,,,,,,,,,,,,,,,,,,,,,,,,,,,,,,,,,,,,,,,,,,,,,,,,,,,,,,,,,,,,,,,,,,,,,,,,,,..",
"...,,,,,,,,,,,,,,,,,,,,,,,,,,,,,,,,,,,,,,,,,,,,,,,,,,,,,,,,,,,,,,,,,,,,,,,,,,,,,,,,,,,,,,...........",
"....................................................................................................",
"...................................................................................................."
};
